<?xml version="1.0" encoding="UTF-8" standalone="no"?>
<!-- Created with Inkscape (http://www.inkscape.org/) -->

<svg
   version="1.1"
   id="svg2"
   width="274.77332"
   height="57.560001"
   viewBox="0 0 274.77332 57.560001"
   sodipodi:docname="UCLA_Samueli_CS_block_cmyk.eps"
   xmlns:inkscape="http://www.inkscape.org/namespaces/inkscape"
   xmlns:sodipodi="http://sodipodi.sourceforge.net/DTD/sodipodi-0.dtd"
   xmlns="http://www.w3.org/2000/svg"
   xmlns:svg="http://www.w3.org/2000/svg">
  <defs
     id="defs6" />
  <sodipodi:namedview
     id="namedview4"
     pagecolor="#ffffff"
     bordercolor="#000000"
     borderopacity="0.25"
     inkscape:showpageshadow="2"
     inkscape:pageopacity="0.0"
     inkscape:pagecheckerboard="0"
     inkscape:deskcolor="#d1d1d1" />
  <g
     id="g8"
     inkscape:groupmode="layer"
     inkscape:label="ink_ext_XXXXXX"
     transform="matrix(1.3333333,0,0,-1.3333333,0,57.56)">
    <g
       id="g10"
       transform="scale(0.1)">
      <path
         d="m 1007.24,257.867 h 34.43 c 2.42,-20.847 14.3,-29.09 39.04,-29.09 17.94,0 33.7,6.297 33.7,22.305 0,16.973 -16.49,20.359 -42.92,26.426 -31.03,7.031 -59.4,15.273 -59.4,51.406 0,34.18 27.88,51.883 66.43,51.883 39.04,0 64.26,-19.16 66.92,-54.07 h -33.7 c -1.94,17.461 -15.52,26.191 -33.46,26.191 -18.91,0 -31.27,-8.008 -31.27,-20.371 0,-14.063 12.12,-18.184 37.82,-23.762 35.64,-7.762 64.73,-16.25 64.73,-53.582 0,-35.156 -28.36,-54.797 -67.4,-54.797 -47.03,0 -73.71,20.852 -74.92,57.461"
         style="fill:#231f20;fill-opacity:1;fill-rule:nonzero;stroke:none"
         id="path12" />
      <path
         d="m 1241.02,248.172 v 18.672 c -5.82,-3.399 -14.79,-5.344 -23.03,-7.278 -17.22,-3.875 -25.71,-7.761 -25.71,-19.394 0,-11.641 7.76,-15.762 19.4,-15.762 18.91,0 29.34,11.633 29.34,23.762 z m -0.25,-30.07 h -0.48 c -6.3,-9.454 -15.27,-16.727 -36.61,-16.727 -25.46,0 -43.4,13.34 -43.4,38.066 0,27.403 22.31,36.122 49.95,40.008 20.6,2.91 30.06,4.602 30.06,14.063 0,8.965 -7.03,14.785 -20.85,14.785 -15.52,0 -23.04,-5.574 -24,-17.449 h -29.34 c 0.97,21.816 17.21,40.976 53.58,40.976 37.34,0 52.37,-16.738 52.37,-45.832 v -63.281 c 0,-9.453 1.46,-15.027 4.37,-17.215 v -1.211 h -31.76 c -1.94,2.422 -3.16,8.242 -3.89,13.817"
         style="fill:#231f20;fill-opacity:1;fill-rule:nonzero;stroke:none"
         id="path14" />
      <path
         d="m 1292.61,328.668 h 31.76 v -16.727 h 0.73 c 6.78,11.395 18.91,20.118 36.12,20.118 15.76,0 28.37,-8.723 34.43,-21.817 h 0.49 c 8.48,13.574 21.58,21.817 37.33,21.817 26.19,0 40.98,-16.973 40.98,-44.121 v -83.653 h -32.97 v 78.074 c 0,14.063 -7.03,21.34 -19.16,21.34 -13.82,0 -22.3,-10.676 -22.3,-27.16 v -72.254 h -32.98 v 78.074 c 0,14.063 -7.03,21.34 -19.16,21.34 -13.33,0 -22.3,-10.676 -22.3,-27.16 v -72.254 h -32.97 v 124.383"
         style="fill:#231f20;fill-opacity:1;fill-rule:nonzero;stroke:none"
         id="path16" />
      <path
         d="m 1573.48,204.285 v 14.551 h -0.72 c -8.49,-11.398 -18.19,-17.949 -35.65,-17.949 -27.64,0 -43.16,17.703 -43.16,44.863 v 82.918 h 32.74 v -77.344 c 0,-14.551 6.55,-22.547 20.61,-22.547 15.52,0 24.97,11.629 24.97,28.125 v 71.766 h 32.97 V 204.285 h -31.76"
         style="fill:#231f20;fill-opacity:1;fill-rule:nonzero;stroke:none"
         id="path18" />
      <path
         d="m 1653.07,279.93 h 55.28 c -0.96,15.761 -11.39,26.668 -26.42,26.668 -17.46,0 -25.95,-10.418 -28.86,-26.668 z m -32.97,-13.332 c 0,36.855 24.97,65.461 61.34,65.461 40.01,0 61.35,-30.547 61.35,-74.914 h -90.2 c 2.42,-19.161 13.09,-31.036 31.76,-31.036 12.85,0 20.37,5.813 24,15.274 h 32.49 c -4.6,-22.07 -24.24,-40.731 -56.25,-40.731 -41.22,0 -64.49,28.848 -64.49,65.946"
         style="fill:#231f20;fill-opacity:1;fill-rule:nonzero;stroke:none"
         id="path20" />
      <path
         d="m 1758.13,377.645 h 32.97 v -173.36 h -32.97 v 173.36"
         style="fill:#231f20;fill-opacity:1;fill-rule:nonzero;stroke:none"
         id="path22" />
      <path
         d="m 1812.01,328.668 h 32.97 V 204.285 h -32.97 z m 0,48.977 h 32.97 v -29.582 h -32.97 v 29.582"
         style="fill:#231f20;fill-opacity:1;fill-rule:nonzero;stroke:none"
         id="path24" />
      <path
         d="M 920.547,0 H 0 V 431.738 H 920.547 V 0"
         style="fill:#3679bc;fill-opacity:1;fill-rule:nonzero;stroke:none"
         id="path26" />
      <path
         d="m 147.215,174.363 c -0.891,6.895 -0.453,16.879 -0.453,21.778 l 10.371,117.695 h 38.531 L 185.102,195.102 c -2.282,-25.696 7.808,-44.016 33.457,-44.016 26.222,0 40.082,18.637 42.367,41.434 l 10.933,121.316 h 38.512 L 299.727,194.039 c -4.297,-46.121 -34.899,-80.668 -84.364,-80.668 -38.578,0 -63.429,24.934 -68.148,60.992"
         style="fill:#ffffff;fill-opacity:1;fill-rule:nonzero;stroke:none"
         id="path28" />
      <path
         d="m 319.223,214.219 c 5.027,56.492 43.144,103.336 108.98,103.336 17.348,0 33.973,-3.961 50.598,-14.637 l -4.395,-46.68 c -15.191,19.985 -33.222,23.219 -49.875,23.219 -40.968,0 -63.437,-28.449 -66.66,-64.473 -3.109,-35.074 14.996,-63.589 54.688,-63.589 17.328,0 35.695,4.992 54.937,24.21 l -4.262,-47.91 c -18.726,-10.156 -36.164,-14.777 -53.703,-14.777 -65.152,0 -94.992,48.398 -90.308,101.301"
         style="fill:#ffffff;fill-opacity:1;fill-rule:nonzero;stroke:none"
         id="path30" />
      <path
         d="m 509.566,313.836 h 38.426 L 533.965,154.012 h 55.058 c 3.875,0 17.004,0.203 20.563,0.41 -0.199,-1.922 -3.504,-36.926 -3.504,-36.926 H 492.137 l 17.429,196.34"
         style="fill:#ffffff;fill-opacity:1;fill-rule:nonzero;stroke:none"
         id="path32" />
      <path
         d="m 719.617,322.824 -2.66,-0.035 -105.219,-205.293 h 40.84 l 14.785,31.145 h 74.125 l 9.25,-31.145 h 40.735 z m -9.855,-82.289 c 1.277,2.789 2.402,6.235 2.843,8.235 0.012,0.035 0.618,0.035 0.618,0.035 0.207,-2.481 0.66,-5.414 1.461,-8.305 2.101,-8.953 17.082,-58.656 17.082,-58.656 h -48.52 c 0,0 26,57.422 26.516,58.691"
         style="fill:#ffffff;fill-opacity:1;fill-rule:nonzero;stroke:none"
         id="path34" />
      <path
         d="m 1007.06,102.34 c 0,28.359 17.02,50.371 45.78,50.371 22.55,0 36.2,-12.969 38.76,-30.781 h -11.89 c -2.29,12.011 -11.87,20.254 -27.14,20.254 -21.2,0 -33.08,-17.149 -33.08,-39.844 0,-23.633 13.1,-39.5705 33.22,-39.5705 18.23,0 26.87,12.4219 28.09,26.6016 h 12.02 c -0.14,-9.5898 -4.73,-20.3906 -11.62,-27.1289 -6.75,-6.6211 -16.61,-10.1367 -28.9,-10.1367 -27.41,0 -45.24,20.9375 -45.24,50.2345"
         style="fill:#231f20;fill-opacity:1;fill-rule:nonzero;stroke:none"
         id="path36" />
      <path
         d="m 1157.4,88.8438 c 0,15.3902 -7.56,27.6762 -22.42,27.6762 -14.85,0 -22.55,-12.286 -22.55,-27.6762 0,-15.4102 7.7,-27.5586 22.55,-27.5586 14.86,0 22.42,12.1484 22.42,27.5586 z m -56.18,0 c 0,20.2542 12.97,36.7192 33.76,36.7192 20.94,0 33.63,-16.465 33.63,-36.7192 0,-20.2735 -12.69,-36.7383 -33.63,-36.7383 -20.79,0 -33.76,16.4648 -33.76,36.7383"
         style="fill:#231f20;fill-opacity:1;fill-rule:nonzero;stroke:none"
         id="path38" />
      <path
         d="m 1179.35,123.805 h 10.94 v -9.981 h 0.27 c 4.32,6.739 11.75,11.602 20.52,11.602 8.51,0 15.26,-4.317 18.23,-12.422 h 0.27 c 4.46,7.969 12.84,12.422 21.34,12.422 12.42,0 21.2,-7.969 21.2,-22.403 V 54 h -10.94 v 48.477 c 0,8.632 -5.8,13.769 -12.83,13.769 -9.05,0 -17.15,-7.832 -17.15,-18.7694 V 54 h -10.93 v 48.477 c 0,8.632 -4.87,13.769 -12.02,13.769 -8.51,0 -17.96,-7.832 -17.96,-18.7694 V 54 h -10.94 v 69.805"
         style="fill:#231f20;fill-opacity:1;fill-rule:nonzero;stroke:none"
         id="path40" />
      <path
         d="m 1338.76,88.5703 c 0,15.6637 -6.62,27.5387 -19.86,27.5387 -15.25,0 -22.28,-12.421 -22.28,-27.5387 0,-15.1367 6.08,-27.4219 22.15,-27.4219 13.37,0 19.99,11.6211 19.99,27.4219 z m -52.4,35.2347 h 10.94 v -9.844 h 0.27 c 5.27,7.148 12.29,11.465 22.42,11.465 17.68,0 29.97,-13.496 29.97,-36.719 0,-22.4218 -11.48,-36.7382 -30.38,-36.7382 -9.45,0 -16.2,2.832 -22.01,10.2734 h -0.27 V 31.5781 h -10.94 v 92.2269"
         style="fill:#231f20;fill-opacity:1;fill-rule:nonzero;stroke:none"
         id="path42" />
      <path
         d="m 1405.31,54 v 9.5898 h -0.27 c -5,-6.7578 -10.94,-11.2109 -21.07,-11.2109 -14.31,0 -23.5,8.6328 -23.5,23.0859 v 48.3402 h 10.94 V 75.7383 c 0,-9.043 5.8,-14.3164 15.66,-14.3164 11.08,0 18.24,8.3789 18.24,19.4531 v 42.93 h 10.93 V 54 h -10.93"
         style="fill:#231f20;fill-opacity:1;fill-rule:nonzero;stroke:none"
         id="path44" />
      <path
         d="m 1424.86,123.805 h 10.13 v 22.011 h 10.94 v -22.011 h 13.5 v -8.907 h -13.5 V 69.5273 c 0,-4.8632 2.56,-6.4843 7.02,-6.4843 2.16,0 4.59,0.5468 5.81,0.9375 h 0.4 v -9.4532 c -2.56,-0.5273 -5.53,-0.9375 -8.78,-0.9375 -8.91,0 -15.39,3.6524 -15.39,13.4961 v 47.8121 h -10.13 v 8.907"
         style="fill:#231f20;fill-opacity:1;fill-rule:nonzero;stroke:none"
         id="path46" />
      <path
         d="m 1474.56,94.5078 h 42 c -0.67,13.9062 -7.83,22.4222 -20.39,22.4222 -12.96,0 -19.99,-9.727 -21.61,-22.4222 z m -11.48,-5.664 c 0,20.2542 13.24,36.7192 33.09,36.7192 20.93,0 32.14,-16.192 32.14,-39.2974 h -54.01 c 0.8,-14.1797 8.5,-24.9804 22.54,-24.9804 10.13,0 16.88,4.8632 19.32,14.3164 h 10.66 c -3.24,-14.9805 -14.18,-23.4961 -29.98,-23.4961 -21.33,0 -33.76,16.4648 -33.76,36.7383"
         style="fill:#231f20;fill-opacity:1;fill-rule:nonzero;stroke:none"
         id="path48" />
      <path
         d="m 1549.62,112.203 h 0.27 c 4.19,6.738 11.48,12.422 20.8,12.422 2.02,0 3.1,-0.273 4.45,-0.82 v -10.528 h -0.41 c -1.62,0.547 -2.7,0.684 -4.85,0.684 -10.81,0 -20.26,-8.106 -20.26,-21.211 V 54 h -10.94 v 69.805 h 10.94 v -11.602"
         style="fill:#231f20;fill-opacity:1;fill-rule:nonzero;stroke:none"
         id="path50" />
      <path
         d="m 1601.99,86.6758 h 11.89 c 1.62,-16.3477 11.61,-24.8438 29.84,-24.8438 13.37,0 22.96,6.0743 22.96,18.086 0,13.2422 -11.62,16.3476 -28.9,20.117 -17.02,3.789 -31.6,8.653 -31.6,26.875 0,15.938 13.23,25.528 32.81,25.528 24.18,0 34.17,-12.286 36.6,-30.118 h -11.48 c -1.75,13.789 -10.67,20.664 -24.84,20.664 -13.1,0 -21.75,-5.527 -21.75,-15.527 0,-10.937 10.8,-14.18 25.26,-17.012 18.77,-3.789 35.91,-8.379 35.91,-30.1169 0,-18.0859 -14.71,-28.2226 -35.51,-28.2226 -27.14,0 -40.11,15.1172 -41.19,34.5703"
         style="fill:#231f20;fill-opacity:1;fill-rule:nonzero;stroke:none"
         id="path52" />
      <path
         d="m 1687.27,88.8438 c 0,20.2542 12.96,36.7192 33.76,36.7192 16.47,0 27.41,-9.454 29.84,-24.297 h -11.07 c -1.62,9.453 -8.24,15.254 -18.77,15.254 -14.86,0 -22.55,-12.286 -22.55,-27.6762 0,-15.4102 7.69,-27.5586 22.55,-27.5586 11.34,0 18.09,6.4843 19.04,17.2851 h 10.8 c -1.48,-16.7383 -12.42,-26.4648 -29.84,-26.4648 -20.8,0 -33.76,16.4648 -33.76,36.7383"
         style="fill:#231f20;fill-opacity:1;fill-rule:nonzero;stroke:none"
         id="path54" />
      <path
         d="m 1761.25,123.805 h 10.94 V 54 h -10.94 z m 0,26.738 h 10.94 v -13.496 h -10.94 v 13.496"
         style="fill:#231f20;fill-opacity:1;fill-rule:nonzero;stroke:none"
         id="path56" />
      <path
         d="m 1794.35,94.5078 h 42 c -0.68,13.9062 -7.84,22.4222 -20.39,22.4222 -12.96,0 -19.99,-9.727 -21.61,-22.4222 z m -11.47,-5.664 c 0,20.2542 13.23,36.7192 33.08,36.7192 20.93,0 32.14,-16.192 32.14,-39.2974 h -54.02 c 0.81,-14.1797 8.51,-24.9804 22.56,-24.9804 10.13,0 16.87,4.8632 19.31,14.3164 h 10.66 c -3.23,-14.9805 -14.18,-23.4961 -29.97,-23.4961 -21.34,0 -33.76,16.4648 -33.76,36.7383"
         style="fill:#231f20;fill-opacity:1;fill-rule:nonzero;stroke:none"
         id="path58" />
      <path
         d="m 1869.44,114.625 h 0.27 c 5,6.621 12.02,10.801 22.14,10.801 14.59,0 23.5,-7.969 23.5,-22.403 V 54 h -10.94 v 48.066 c 0,9.043 -5.94,14.18 -15.8,14.18 -11.07,0 -19.17,-7.832 -19.17,-19.3163 V 54 h -10.94 v 69.805 h 10.94 v -9.18"
         style="fill:#231f20;fill-opacity:1;fill-rule:nonzero;stroke:none"
         id="path60" />
      <path
         d="m 1925.62,88.8438 c 0,20.2542 12.96,36.7192 33.76,36.7192 16.48,0 27.42,-9.454 29.85,-24.297 h -11.08 c -1.62,9.453 -8.24,15.254 -18.77,15.254 -14.86,0 -22.56,-12.286 -22.56,-27.6762 0,-15.4102 7.7,-27.5586 22.56,-27.5586 11.34,0 18.1,6.4843 19.04,17.2851 h 10.81 c -1.5,-16.7383 -12.43,-26.4648 -29.85,-26.4648 -20.8,0 -33.76,16.4648 -33.76,36.7383"
         style="fill:#231f20;fill-opacity:1;fill-rule:nonzero;stroke:none"
         id="path62" />
      <path
         d="m 2007.03,94.5078 h 41.99 c -0.67,13.9062 -7.83,22.4222 -20.39,22.4222 -12.96,0 -19.98,-9.727 -21.6,-22.4222 z m -11.48,-5.664 c 0,20.2542 13.24,36.7192 33.08,36.7192 20.94,0 32.15,-16.192 32.15,-39.2974 h -54.02 c 0.81,-14.1797 8.5,-24.9804 22.55,-24.9804 10.13,0 16.88,4.8632 19.31,14.3164 h 10.67 c -3.24,-14.9805 -14.18,-23.4961 -29.98,-23.4961 -21.33,0 -33.76,16.4648 -33.76,36.7383"
         style="fill:#231f20;fill-opacity:1;fill-rule:nonzero;stroke:none"
         id="path64" />
    </g>
  </g>
</svg>
